<svg width="16" height="16" viewBox="0 0 16 16" fill="none" xmlns="http://www.w3.org/2000/svg">
<path fill-rule="evenodd" clip-rule="evenodd" d="M1.47826 3C0.651537 3 0 3.68199 0 4.5V12.5C0 13.318 0.651537 14 1.47826 14H14.5217C15.3485 14 16 13.318 16 12.5V4.5C16 3.68199 15.3485 3 14.5217 3H1.47826ZM1 4.63515V12.5C1 12.7866 1.22443 13 1.47826 13H14.5217C14.7756 13 15 12.7866 15 12.5V4.63619L8.31682 10.1013C8.13266 10.2519 7.86791 10.2519 7.68377 10.1013L1 4.63515ZM14.1983 4H1.80297L8.00032 9.06831L14.1983 4Z" fill="#666666"/>
</svg>
