<svg width="375" height="121" viewBox="0 0 375 121" fill="none" xmlns="http://www.w3.org/2000/svg">
<g clip-path="url(#clip0_5936_102943)">
<rect width="375" height="120" transform="translate(0 0.695679)" fill="white"/>
<rect width="375" height="120" transform="translate(0 0.695679)" fill="url(#paint0_radial_5936_102943)"/>
<rect width="375" height="120" transform="translate(0 0.695679)" fill="url(#paint1_radial_5936_102943)"/>
<rect width="375" height="120" transform="translate(0 0.695679)" fill="url(#paint2_radial_5936_102943)"/>
<rect width="375" height="120" transform="translate(0 0.695679)" fill="url(#paint3_radial_5936_102943)" fill-opacity="0.6"/>
<rect width="375" height="120" transform="translate(0 0.695679)" fill="url(#paint4_radial_5936_102943)" fill-opacity="0.5"/>
<path d="M133.083 50.6854L131.415 50.2333C131.133 50.1485 130.935 49.8376 131.02 49.5551L133.789 39.1278C133.874 38.8452 134.185 38.6474 134.467 38.7322L135.965 39.1278C136.248 39.2126 136.445 39.5234 136.361 39.806L135.004 44.8642L139.639 39.4669C139.865 39.2126 140.232 39.2126 140.458 39.4387L141.899 40.8233C142.04 40.9646 142.097 41.1624 142.04 41.3602L141.193 44.6947L145.46 39.4952C145.686 39.2408 146.053 39.2126 146.307 39.4387L147.636 40.7668C147.805 40.9081 147.862 41.1059 147.805 41.3037C147.551 42.2645 147.155 43.7339 146.675 45.4576C146.42 46.3901 146.505 47.1814 146.873 47.6618C147.014 47.8596 147.296 48.0291 147.607 48.1139C147.918 48.1704 148.598 48.3234 149.227 48.1139L150.6 50.2615C148.788 51.0561 147.24 50.7419 146.929 50.6854C146.081 50.4593 145.347 50.0072 144.781 49.2725C144.019 48.2834 143.736 46.9271 143.99 45.4576L139.865 50.4876C139.723 50.6571 139.497 50.7419 139.299 50.6854L137.632 50.2615C137.35 50.1767 137.152 49.8659 137.237 49.5833L138.395 44.949L133.648 50.4876C133.507 50.6571 133.28 50.7419 133.083 50.6854Z" fill="url(#paint5_linear_5936_102943)"/>
<path d="M155.774 55.6588C155.52 56.6478 154.842 59.2476 152.1 59.2476C150.433 59.2476 149.049 57.8347 149.049 56.1957C149.049 53.5112 151.027 52.07 153.316 51.1375C153.146 51.1658 153.005 51.1658 152.835 51.1658C151.535 51.1658 150.348 50.6006 149.614 49.6116C148.738 48.4247 148.512 46.7575 148.992 44.9207C149.529 42.8861 150.151 40.4842 150.405 39.4387C150.49 39.1561 150.744 39.0148 151.027 39.0996L152.637 39.4952C152.92 39.5799 153.09 39.8625 153.005 40.1451C152.75 41.1624 152.1 43.5926 151.592 45.5989C151.338 46.6162 151.309 47.4922 151.705 48.0009C152.044 48.453 152.553 48.5378 152.835 48.5378C154.192 48.5378 155.265 47.0966 155.689 45.712L157.357 39.5234C157.441 39.2126 157.724 39.0713 158.006 39.1561L159.561 39.5517C159.843 39.6365 160.041 39.7212 160.041 39.7495C159.843 40.5407 156.961 51.3071 155.774 55.6588ZM153.513 53.9351C152.383 54.5285 151.677 55.4327 151.677 56.0827C151.677 56.3087 151.846 56.5913 152.185 56.5913C152.722 56.5913 153.174 55.0936 153.513 53.9351Z" fill="url(#paint6_linear_5936_102943)"/>
<path d="M166.685 34.8957V44.6128L171.6 39.1313H174.137L169.493 44.1824L174.771 51.3173H172.257L168.112 45.7L166.685 47.2402V51.3173H164.624V34.8957H166.685ZM181.632 34.6012C184.576 34.6012 187.226 35.9149 187.86 39.086H185.618C185.052 37.1834 183.194 36.5491 181.541 36.5491C180.272 36.5491 178.053 37.1154 178.053 38.9501C178.053 40.3997 179.208 41.1246 180.725 41.4643L182.628 41.8947C185.142 42.4383 188.155 43.3896 188.155 46.6966C188.155 49.913 185.165 51.6118 181.903 51.6118C178.03 51.6118 175.584 49.5053 175.153 46.2209H177.419C177.849 48.486 179.434 49.6638 181.949 49.6638C184.372 49.6638 185.777 48.5087 185.777 46.9005C185.777 45.179 184.304 44.4542 182.243 44.0012L180.205 43.5708C177.962 43.0725 175.697 41.8267 175.697 39.086C175.697 35.9602 178.981 34.6012 181.632 34.6012ZM198.223 49.5732C197.521 50.7284 196.411 51.6118 194.395 51.6118C191.564 51.6118 190.499 49.7091 190.499 46.9231V39.1313H192.561V46.3115C192.561 48.1915 192.878 49.8224 195.12 49.8224C197.068 49.8224 198.223 48.4407 198.223 45.8359V39.1313H200.284V51.3173H198.223V49.5732ZM205.615 34.8957V37.3872H203.554V34.8957H205.615ZM205.615 39.1313V51.3173H203.554V39.1313H205.615ZM209.474 36.0735H211.535V39.1313H213.846V40.7848H211.535V48.0103C211.535 49.2788 211.626 49.5959 212.804 49.5959H213.846V51.3173H212.351C210.018 51.3173 209.474 50.7964 209.474 48.2595V40.7848H207.549V39.1313H209.474V36.0735ZM217.522 45.9038C217.613 48.5313 219.47 49.7997 221.282 49.7997C223.094 49.7997 224.091 48.9843 224.612 47.7838H226.741C226.175 49.8903 224.249 51.6118 221.282 51.6118C217.431 51.6118 215.302 48.8484 215.302 45.247C215.302 41.3964 217.884 38.9275 221.214 38.9275C224.929 38.9275 227.171 42.0532 226.899 45.9038H217.522ZM217.545 44.1371H224.725C224.68 42.4156 223.389 40.6942 221.214 40.6942C219.379 40.6942 217.726 41.6908 217.545 44.1371Z" fill="#333333"/>
<path d="M243.576 34.6077L242.669 38.1008H238.685L237.541 42.6881H233.991L235.135 38.1008H230.993L231.861 34.6077H236.003L237.147 30.1045H240.736L239.592 34.6077H243.576Z" fill="url(#paint7_linear_5936_102943)"/>
<path d="M0 80.6957V120.696H375V80.6957C375 80.6957 281.25 92.481 187.5 92.481C93.75 92.481 0 80.6957 0 80.6957Z" fill="white"/>
</g>
<defs>
<radialGradient id="paint0_radial_5936_102943" cx="0" cy="0" r="1" gradientUnits="userSpaceOnUse" gradientTransform="translate(365 161) rotate(-90) scale(155.9 279.409)">
<stop stop-color="#FD8C3D"/>
<stop offset="1" stop-color="white" stop-opacity="0"/>
</radialGradient>
<radialGradient id="paint1_radial_5936_102943" cx="0" cy="0" r="1" gradientUnits="userSpaceOnUse" gradientTransform="translate(296.5 193) rotate(-90) scale(188.024 115.74)">
<stop stop-color="#F34BBB"/>
<stop offset="1" stop-color="white" stop-opacity="0"/>
</radialGradient>
<radialGradient id="paint2_radial_5936_102943" cx="0" cy="0" r="1" gradientUnits="userSpaceOnUse" gradientTransform="translate(187 250) rotate(-90) scale(248 205.08)">
<stop offset="0.0138958" stop-color="#A055FC"/>
<stop offset="1" stop-color="white" stop-opacity="0"/>
</radialGradient>
<radialGradient id="paint3_radial_5936_102943" cx="0" cy="0" r="1" gradientUnits="userSpaceOnUse" gradientTransform="translate(94.5 228.5) rotate(-90) scale(221 160.679)">
<stop stop-color="#337CFF"/>
<stop offset="1" stop-color="white" stop-opacity="0.5"/>
</radialGradient>
<radialGradient id="paint4_radial_5936_102943" cx="0" cy="0" r="1" gradientUnits="userSpaceOnUse" gradientTransform="translate(9 302) rotate(-90.5739) scale(299.515 309.016)">
<stop stop-color="#1DDDFD"/>
<stop offset="1" stop-color="white" stop-opacity="0.7"/>
</radialGradient>
<linearGradient id="paint5_linear_5936_102943" x1="131" y1="48.98" x2="160.041" y2="48.98" gradientUnits="userSpaceOnUse">
<stop stop-color="#1DDDFD"/>
<stop offset="0.25" stop-color="#337CFF"/>
<stop offset="0.5" stop-color="#A055FC"/>
<stop offset="0.755" stop-color="#F34BBB"/>
<stop offset="1" stop-color="#FD8C3D"/>
</linearGradient>
<linearGradient id="paint6_linear_5936_102943" x1="131" y1="48.98" x2="160.041" y2="48.98" gradientUnits="userSpaceOnUse">
<stop stop-color="#1DDDFD"/>
<stop offset="0.25" stop-color="#337CFF"/>
<stop offset="0.5" stop-color="#A055FC"/>
<stop offset="0.755" stop-color="#F34BBB"/>
<stop offset="1" stop-color="#FD8C3D"/>
</linearGradient>
<linearGradient id="paint7_linear_5936_102943" x1="230.993" y1="36.3963" x2="241.38" y2="33.5791" gradientUnits="userSpaceOnUse">
<stop stop-color="#1DDDFD"/>
<stop offset="0.25" stop-color="#337CFF"/>
<stop offset="0.5" stop-color="#A055FC"/>
<stop offset="0.755" stop-color="#F34BBB"/>
<stop offset="1" stop-color="#FD8C3D"/>
</linearGradient>
<clipPath id="clip0_5936_102943">
<rect width="375" height="120" fill="white" transform="translate(0 0.695679)"/>
</clipPath>
</defs>
</svg>
