<svg width="375" height="120" viewBox="0 0 375 120" fill="none" xmlns="http://www.w3.org/2000/svg">
<g clip-path="url(#clip0_5936_103004)">
<rect width="375" height="120" fill="#1A1A1A"/>
<rect width="375" height="120" fill="url(#paint0_radial_5936_103004)"/>
<rect width="375" height="120" fill="url(#paint1_radial_5936_103004)"/>
<rect width="375" height="120" fill="url(#paint2_radial_5936_103004)"/>
<rect width="375" height="120" fill="url(#paint3_radial_5936_103004)" fill-opacity="0.6"/>
<rect width="375" height="120" fill="url(#paint4_radial_5936_103004)" fill-opacity="0.5"/>
<path d="M0 80V120H375V80C375 80 281.25 91.7853 187.5 91.7853C93.75 91.7853 0 80 0 80Z" fill="#1A1A1A"/>
<path d="M133.083 55.2983L131.415 54.8462C131.133 54.7614 130.935 54.4506 131.02 54.168L133.789 43.7407C133.874 43.4582 134.185 43.2603 134.467 43.3451L135.965 43.7407C136.248 43.8255 136.445 44.1363 136.361 44.4189L135.004 49.4771L139.639 44.0798C139.865 43.8255 140.232 43.8255 140.458 44.0516L141.899 45.4362C142.04 45.5775 142.097 45.7753 142.04 45.9731L141.193 49.3076L145.46 44.1081C145.686 43.8538 146.053 43.8255 146.307 44.0516L147.636 45.3797C147.805 45.521 147.862 45.7188 147.805 45.9166C147.551 46.8774 147.155 48.3468 146.675 50.0705C146.42 51.0031 146.505 51.7943 146.873 52.2747C147.014 52.4725 147.296 52.642 147.607 52.7268C147.918 52.7833 148.598 52.9363 149.227 52.7268L150.6 54.8744C148.788 55.669 147.24 55.3548 146.929 55.2983C146.081 55.0722 145.347 54.6201 144.781 53.8854C144.019 52.8964 143.736 51.54 143.99 50.0705L139.865 55.1005C139.723 55.27 139.497 55.3548 139.299 55.2983L137.632 54.8744C137.35 54.7897 137.152 54.4788 137.237 54.1962L138.395 49.5619L133.648 55.1005C133.507 55.27 133.28 55.3548 133.083 55.2983Z" fill="url(#paint5_linear_5936_103004)"/>
<path d="M155.774 60.2717C155.52 61.2608 154.842 63.8605 152.1 63.8605C150.433 63.8605 149.049 62.4476 149.049 60.8086C149.049 58.1241 151.027 56.6829 153.316 55.7504C153.146 55.7787 153.005 55.7787 152.835 55.7787C151.535 55.7787 150.348 55.2135 149.614 54.2245C148.738 53.0376 148.512 51.3704 148.992 49.5336C149.529 47.4991 150.151 45.0971 150.405 44.0516C150.49 43.769 150.744 43.6277 151.027 43.7125L152.637 44.1081C152.92 44.1929 153.09 44.4754 153.005 44.758C152.75 45.7753 152.1 48.2055 151.592 50.2118C151.338 51.2291 151.309 52.1051 151.705 52.6138C152.044 53.0659 152.553 53.1507 152.835 53.1507C154.192 53.1507 155.265 51.7095 155.689 50.3249L157.357 44.1363C157.441 43.8255 157.724 43.6842 158.006 43.769L159.561 44.1646C159.843 44.2494 160.041 44.3342 160.041 44.3624C159.843 45.1536 156.961 55.92 155.774 60.2717ZM153.513 58.548C152.383 59.1414 151.677 60.0457 151.677 60.6956C151.677 60.9217 151.846 61.2042 152.185 61.2042C152.722 61.2042 153.174 59.7066 153.513 58.548Z" fill="url(#paint6_linear_5936_103004)"/>
<path d="M166.685 39.5086V49.2257L171.6 43.7442H174.137L169.493 48.7953L174.771 55.9302H172.257L168.112 50.3129L166.685 51.8531V55.9302H164.624V39.5086H166.685ZM181.631 39.2141C184.576 39.2141 187.226 40.5278 187.86 43.6989H185.618C185.052 41.7963 183.194 41.1621 181.541 41.1621C180.272 41.1621 178.053 41.7283 178.053 43.563C178.053 45.0127 179.208 45.7375 180.725 46.0772L182.628 46.5076C185.142 47.0512 188.155 48.0025 188.155 51.3095C188.155 54.5259 185.165 56.2247 181.903 56.2247C178.03 56.2247 175.584 54.1182 175.153 50.8339H177.418C177.849 53.0989 179.434 54.2767 181.949 54.2767C184.372 54.2767 185.777 53.1216 185.777 51.5134C185.777 49.7919 184.304 49.0671 182.243 48.6141L180.204 48.1837C177.962 47.6854 175.697 46.4396 175.697 43.6989C175.697 40.5731 178.981 39.2141 181.631 39.2141ZM198.223 54.1861C197.521 55.3413 196.411 56.2247 194.395 56.2247C191.564 56.2247 190.499 54.322 190.499 51.536V43.7442H192.561V50.9245C192.561 52.8045 192.878 54.4353 195.12 54.4353C197.068 54.4353 198.223 53.0536 198.223 50.4488V43.7442H200.284V55.9302H198.223V54.1861ZM205.615 39.5086V42.0001H203.554V39.5086H205.615ZM205.615 43.7442V55.9302H203.554V43.7442H205.615ZM209.474 40.6864H211.535V43.7442H213.846V45.3977H211.535V52.6233C211.535 53.8917 211.626 54.2088 212.804 54.2088H213.846V55.9302H212.351C210.018 55.9302 209.474 55.4093 209.474 52.8724V45.3977H207.549V43.7442H209.474V40.6864ZM217.522 50.5167C217.613 53.1442 219.47 54.4126 221.282 54.4126C223.094 54.4126 224.091 53.5972 224.612 52.3967H226.741C226.175 54.5033 224.249 56.2247 221.282 56.2247C217.431 56.2247 215.302 53.4613 215.302 49.8599C215.302 46.0093 217.884 43.5404 221.214 43.5404C224.929 43.5404 227.171 46.6662 226.899 50.5167H217.522ZM217.545 48.75H224.725C224.68 47.0286 223.388 45.3071 221.214 45.3071C219.379 45.3071 217.726 46.3037 217.545 48.75Z" fill="#F2F4F6"/>
<path d="M243.576 39.2206L242.669 42.7137H238.685L237.541 47.3011H233.991L235.135 42.7137H230.993L231.861 39.2206H236.002L237.146 34.7174H240.736L239.592 39.2206H243.576Z" fill="url(#paint7_linear_5936_103004)"/>
</g>
<defs>
<radialGradient id="paint0_radial_5936_103004" cx="0" cy="0" r="1" gradientUnits="userSpaceOnUse" gradientTransform="translate(365 161) rotate(-90) scale(155.9 279.409)">
<stop stop-color="#FD8C3D"/>
<stop offset="1" stop-color="#1A1A1A" stop-opacity="0"/>
</radialGradient>
<radialGradient id="paint1_radial_5936_103004" cx="0" cy="0" r="1" gradientUnits="userSpaceOnUse" gradientTransform="translate(296.5 193) rotate(-90) scale(188.024 115.74)">
<stop stop-color="#F34BBB"/>
<stop offset="1" stop-color="#1A1A1A" stop-opacity="0"/>
</radialGradient>
<radialGradient id="paint2_radial_5936_103004" cx="0" cy="0" r="1" gradientUnits="userSpaceOnUse" gradientTransform="translate(187 250) rotate(-90) scale(248 205.08)">
<stop offset="0.0138958" stop-color="#A055FC"/>
<stop offset="1" stop-color="#1A1A1A" stop-opacity="0"/>
</radialGradient>
<radialGradient id="paint3_radial_5936_103004" cx="0" cy="0" r="1" gradientUnits="userSpaceOnUse" gradientTransform="translate(94.5 228.5) rotate(-90) scale(221 160.679)">
<stop stop-color="#337CFF"/>
<stop offset="1" stop-color="#1A1A1A" stop-opacity="0.5"/>
</radialGradient>
<radialGradient id="paint4_radial_5936_103004" cx="0" cy="0" r="1" gradientUnits="userSpaceOnUse" gradientTransform="translate(9 302) rotate(-90.5739) scale(299.515 309.016)">
<stop stop-color="#1DDDFD"/>
<stop offset="1" stop-color="#1A1A1A" stop-opacity="0.7"/>
</radialGradient>
<linearGradient id="paint5_linear_5936_103004" x1="131" y1="53.5929" x2="160.041" y2="53.5929" gradientUnits="userSpaceOnUse">
<stop stop-color="#1DDDFD"/>
<stop offset="0.25" stop-color="#337CFF"/>
<stop offset="0.5" stop-color="#A055FC"/>
<stop offset="0.755" stop-color="#F34BBB"/>
<stop offset="1" stop-color="#FD8C3D"/>
</linearGradient>
<linearGradient id="paint6_linear_5936_103004" x1="131" y1="53.5929" x2="160.041" y2="53.5929" gradientUnits="userSpaceOnUse">
<stop stop-color="#1DDDFD"/>
<stop offset="0.25" stop-color="#337CFF"/>
<stop offset="0.5" stop-color="#A055FC"/>
<stop offset="0.755" stop-color="#F34BBB"/>
<stop offset="1" stop-color="#FD8C3D"/>
</linearGradient>
<linearGradient id="paint7_linear_5936_103004" x1="230.993" y1="41.0092" x2="241.379" y2="38.1921" gradientUnits="userSpaceOnUse">
<stop stop-color="#1DDDFD"/>
<stop offset="0.25" stop-color="#337CFF"/>
<stop offset="0.5" stop-color="#A055FC"/>
<stop offset="0.755" stop-color="#F34BBB"/>
<stop offset="1" stop-color="#FD8C3D"/>
</linearGradient>
<clipPath id="clip0_5936_103004">
<rect width="375" height="120" fill="white"/>
</clipPath>
</defs>
</svg>
