<svg width="114" height="33" viewBox="0 0 114 33" fill="none" xmlns="http://www.w3.org/2000/svg">
<path d="M2.70667 23.622L1.03944 23.1699C0.756857 23.0851 0.55905 22.7743 0.643824 22.4917L3.41312 12.0645C3.49789 11.7819 3.80873 11.5841 4.09131 11.6688L5.58899 12.0645C5.87157 12.1492 6.06938 12.4601 5.98461 12.7427L4.62822 17.8009L9.26255 12.4036C9.48861 12.1492 9.85597 12.1492 10.082 12.3753L11.5232 13.7599C11.6645 13.9012 11.721 14.099 11.6645 14.2969L10.8167 17.6313L15.0837 12.4318C15.3098 12.1775 15.6771 12.1492 15.9315 12.3753L17.2596 13.7034C17.4291 13.8447 17.4857 14.0425 17.4291 14.2403C17.1748 15.2011 16.7792 16.6705 16.2988 18.3943C16.0445 19.3268 16.1293 20.118 16.4966 20.5984C16.6379 20.7962 16.9205 20.9658 17.2313 21.0505C17.5422 21.1071 18.2223 21.26 18.8507 21.0505L20.2243 23.1982C18.4123 23.9927 16.864 23.6785 16.5531 23.622C15.7054 23.396 14.9707 22.9438 14.4055 22.2091C13.6426 21.2201 13.36 19.8637 13.6143 18.3943L9.48861 23.4242C9.34732 23.5938 9.12126 23.6785 8.92345 23.622L7.25622 23.1982C6.97364 23.1134 6.77583 22.8025 6.86061 22.52L8.01919 17.8856L3.27183 23.4242C3.13054 23.5938 2.90447 23.6785 2.70667 23.622Z" fill="url(#paint0_linear_4388_236275)"/>
<path d="M25.3981 28.5955C25.1437 29.5845 24.4656 32.1842 21.7245 32.1842C20.0573 32.1842 18.6726 30.7713 18.6726 29.1324C18.6726 26.4478 20.6507 25.0067 22.9396 24.0742C22.7701 24.1024 22.6288 24.1024 22.4592 24.1024C21.1594 24.1024 19.9725 23.5373 19.2378 22.5482C18.3618 21.3614 18.1357 19.6941 18.6161 17.8574C19.153 15.8228 19.7747 13.4209 20.029 12.3753C20.1138 12.0927 20.3681 11.9514 20.6507 12.0362L22.2614 12.4318C22.544 12.5166 22.7136 12.7992 22.6288 13.0818C22.3745 14.099 21.7245 16.5292 21.2159 18.5356C20.9616 19.5529 20.9333 20.4289 21.3289 20.9375C21.668 21.3896 22.1767 21.4744 22.4592 21.4744C23.8156 21.4744 24.8894 20.0332 25.3133 18.6486L26.9805 12.4601C27.0653 12.1492 27.3479 12.0079 27.6305 12.0927L29.1847 12.4883C29.4672 12.5731 29.665 12.6579 29.665 12.6861C29.4672 13.4774 26.5849 24.2437 25.3981 28.5955ZM23.1374 26.8717C22.0071 27.4651 21.3006 28.3694 21.3006 29.0193C21.3006 29.2454 21.4702 29.528 21.8093 29.528C22.3462 29.528 22.7983 28.0303 23.1374 26.8717Z" fill="url(#paint1_linear_4388_236275)"/>
<path d="M36.3087 7.83224V17.5493L41.2239 12.0679H43.7608L39.1174 17.119L44.395 24.2539H41.8808L37.7357 18.6366L36.3087 20.1768V24.2539H34.2475V7.83224H36.3087ZM51.2555 7.53778C54.2 7.53778 56.8502 8.85151 57.4844 12.0226H55.242C54.6757 10.1199 52.8184 9.48573 51.1649 9.48573C49.8964 9.48573 47.6767 10.052 47.6767 11.8867C47.6767 13.3363 48.8319 14.0611 50.3494 14.4009L52.2521 14.8313C54.7663 15.3749 57.7788 16.3262 57.7788 19.6332C57.7788 22.8496 54.789 24.5484 51.5273 24.5484C47.654 24.5484 45.2078 22.4419 44.7774 19.1575H47.0425C47.4728 21.4226 49.0584 22.6004 51.5726 22.6004C53.9962 22.6004 55.4005 21.4452 55.4005 19.837C55.4005 18.1156 53.9282 17.3908 51.867 16.9378L49.8285 16.5074C47.5861 16.0091 45.321 14.7633 45.321 12.0226C45.321 8.89682 48.6054 7.53778 51.2555 7.53778ZM67.8472 22.5098C67.145 23.665 66.0351 24.5484 64.0192 24.5484C61.1879 24.5484 60.1233 22.6457 60.1233 19.8597V12.0679H62.1845V19.2481C62.1845 21.1281 62.5017 22.759 64.7441 22.759C66.692 22.759 67.8472 21.3773 67.8472 18.7725V12.0679H69.9084V24.2539H67.8472V22.5098ZM75.2394 7.83224V10.3238H73.1782V7.83224H75.2394ZM75.2394 12.0679V24.2539H73.1782V12.0679H75.2394ZM79.098 9.01007H81.1592V12.0679H83.4695V13.7214H81.1592V20.9469C81.1592 22.2154 81.2498 22.5325 82.4276 22.5325H83.4695V24.2539H81.9746C79.6416 24.2539 79.098 23.7329 79.098 21.1961V13.7214H77.1727V12.0679H79.098V9.01007ZM87.146 18.8404C87.2366 21.4679 89.094 22.7363 90.906 22.7363C92.7181 22.7363 93.7147 21.9209 94.2356 20.7204H96.3648C95.7985 22.8269 93.8732 24.5484 90.906 24.5484C87.0554 24.5484 84.9263 21.785 84.9263 18.1836C84.9263 14.333 87.5084 11.864 90.8381 11.864C94.5528 11.864 96.7952 14.9898 96.5234 18.8404H87.146ZM87.1687 17.0737H94.3489C94.3036 15.3522 93.0125 13.6308 90.8381 13.6308C89.0034 13.6308 87.3499 14.6274 87.1687 17.0737Z" fill="#333333"/>
<path d="M113.2 7.54432L112.293 11.0374H108.309L107.165 15.6248H103.615L104.759 11.0374H100.617L101.485 7.54432H105.626L106.77 3.04114H110.36L109.216 7.54432H113.2Z" fill="url(#paint2_linear_4388_236275)"/>
<defs>
<linearGradient id="paint0_linear_4388_236275" x1="0.624023" y1="21.9166" x2="29.665" y2="21.9166" gradientUnits="userSpaceOnUse">
<stop stop-color="#1DDDFD"/>
<stop offset="0.25" stop-color="#337CFF"/>
<stop offset="0.5" stop-color="#A055FC"/>
<stop offset="0.755" stop-color="#F34BBB"/>
<stop offset="1" stop-color="#FD8C3D"/>
</linearGradient>
<linearGradient id="paint1_linear_4388_236275" x1="0.624023" y1="21.9166" x2="29.665" y2="21.9166" gradientUnits="userSpaceOnUse">
<stop stop-color="#1DDDFD"/>
<stop offset="0.25" stop-color="#337CFF"/>
<stop offset="0.5" stop-color="#A055FC"/>
<stop offset="0.755" stop-color="#F34BBB"/>
<stop offset="1" stop-color="#FD8C3D"/>
</linearGradient>
<linearGradient id="paint2_linear_4388_236275" x1="100.617" y1="9.33296" x2="111.003" y2="6.51579" gradientUnits="userSpaceOnUse">
<stop stop-color="#1DDDFD"/>
<stop offset="0.25" stop-color="#337CFF"/>
<stop offset="0.5" stop-color="#A055FC"/>
<stop offset="0.755" stop-color="#F34BBB"/>
<stop offset="1" stop-color="#FD8C3D"/>
</linearGradient>
</defs>
</svg>
