<svg width="16" height="16" viewBox="0 0 16 16" fill="none" xmlns="http://www.w3.org/2000/svg">
<path fill-rule="evenodd" clip-rule="evenodd" d="M3.55263 0.272808C3.86221 -0.0677548 4.38925 -0.0928771 4.72981 0.216696L12.242 7.04534C12.2421 7.04541 12.2422 7.04548 12.2423 7.04555C12.2423 7.04561 12.2424 7.04567 12.2425 7.04573C12.3718 7.16323 12.4791 7.30709 12.5541 7.47142C12.6293 7.63621 12.6693 7.8161 12.6693 8.00001C12.6693 8.18392 12.6293 8.3638 12.5541 8.52859C12.4791 8.69293 12.3718 8.83678 12.2425 8.95428C12.2423 8.95441 12.2422 8.95454 12.242 8.95468L4.72981 15.7833C4.38925 16.0929 3.86221 16.0678 3.55263 15.7272C3.24306 15.3866 3.26818 14.8596 3.60875 14.55L10.8145 8.00001L3.60875 1.44998C3.26818 1.14041 3.24306 0.613371 3.55263 0.272808Z" fill="#666666"/>
</svg>
